<svg width="48" height="48" viewBox="0 0 48 48" fill="none" xmlns="http://www.w3.org/2000/svg">
<path d="M9.92722 9.36224C9.15894 9.36224 8.44372 9.15507 7.80667 8.82122C6.31345 8.04326 5.28446 6.49188 5.28436 4.68092C5.28436 2.09537 7.36284 0 9.92712 0C12.4918 0 14.5708 2.09537 14.5708 4.68092C14.5708 6.49089 13.5429 8.04168 12.0516 8.82063C11.4127 9.15507 10.6975 9.36224 9.92722 9.36224Z" fill="#3C50E0"/>
<path d="M20.9482 0.362034H46.4644C47.3125 0.362034 47.9999 1.05643 48 1.91104V25.2339C48 26.0885 47.3126 26.782 46.4645 26.782H38.2764L42.4862 46.0532C42.6764 46.9175 42.1348 47.7721 41.277 47.9628C41.1624 47.9882 41.0467 47.9998 40.9335 47.9998C40.2044 48.0007 39.5469 47.4907 39.3835 46.7434L35.023 26.7821H32.4882L28.1277 46.7434C27.9408 47.6067 27.0861 48.1511 26.236 47.9628C25.3781 47.7721 24.8364 46.9174 25.025 46.0532L29.2352 26.782H20.9482C20.0993 26.782 19.4127 26.0885 19.4127 25.2339V22.3538C20.3351 22.2669 21.1881 21.8258 21.7924 21.1148L22.4839 20.2996V23.6854H44.9287V3.45944H22.4838V10.3618C21.7451 10.5221 21.0501 10.9058 20.5229 11.528L19.4127 12.8367V1.91104C19.4127 1.05643 20.0993 0.362034 20.9482 0.362034Z" fill="#3C50E0"/>
<path d="M33.4981 9.06963C33.803 8.9479 34.1461 9.0989 34.2671 9.40645C34.3751 9.68403 34.264 9.99553 34.0132 10.1413L24.0037 16.0456L20.5863 20.0746C19.8836 20.9055 18.6265 21.0176 17.7861 20.292L16.37 19.0686V14.2932C16.37 14.1736 16.3543 14.0581 16.3386 13.9427C16.3299 13.8782 16.3211 13.8137 16.3151 13.7486L18.8604 15.9484L21.731 12.5685C22.4234 11.7566 23.6213 11.6409 24.4515 12.289L33.4981 9.06963Z" fill="#3C50E0"/>
<path d="M10.7821 10.2628H9.07733C7.77204 10.2628 6.62428 10.9024 5.89473 11.8774L0.66181 16.7348C-0.153554 17.4671 -0.227509 18.7356 0.50674 19.5626L4.7761 24.3671C5.50397 25.1888 6.76395 25.2615 7.57921 24.523C8.39664 23.7844 8.46569 22.5193 7.7332 21.6961L4.79042 18.3829L8.97032 14.6119L6.5359 17.9465L8.91726 20.6271C10.2331 22.1097 10.1091 24.3876 8.63929 25.7153C7.6358 26.6223 6.26637 26.8351 5.07917 26.4168C5.07917 26.4168 5.09761 35.6787 5.09761 45.5975C5.09761 46.9242 6.16417 47.9997 7.48015 47.9997C8.79475 47.9997 9.86268 46.9242 9.86268 45.5975V31.2812H11.4519V45.5975C11.4519 46.2902 11.2604 46.9316 10.9549 47.4993C11.3547 47.8093 11.8522 47.9997 12.3944 47.9997C13.7111 47.9997 14.7776 46.9242 14.7776 45.5975C14.7776 41.7917 14.7781 40.0589 14.7786 37.9242V37.9211C14.7795 34.4943 14.7807 30.029 14.7807 14.2931C14.7809 12.0672 12.9911 10.2628 10.7821 10.2628Z" fill="#3C50E0"/>
</svg>
